<?xml version="1.0" encoding="UTF-8" standalone="no" ?>
<!DOCTYPE svg PUBLIC "-//W3C//DTD SVG 1.1//EN" "http://www.w3.org/Graphics/SVG/1.1/DTD/svg11.dtd">
<svg xmlns="http://www.w3.org/2000/svg" xmlns:xlink="http://www.w3.org/1999/xlink" version="1.1" width="1080" height="1080" viewBox="0 0 1080 1080" xml:space="preserve">
<desc>Created with Fabric.js 5.2.4</desc>
<defs>
</defs>
<g transform="matrix(1 0 0 1 540 540)" id="36b9e3cf-c500-40d1-b289-396bf50c9718"  >
</g>
<g transform="matrix(1 0 0 1 540 540)" id="e5a82674-cee5-4efb-a9f6-83000582c58b"  >
<rect style="stroke: none; stroke-width: 1; stroke-dasharray: none; stroke-linecap: butt; stroke-dashoffset: 0; stroke-linejoin: miter; stroke-miterlimit: 4; fill: rgb(255,255,255); fill-rule: nonzero; opacity: 1; visibility: hidden;" vector-effect="non-scaling-stroke"  x="-540" y="-540" rx="0" ry="0" width="1080" height="1080" />
</g>
<g transform="matrix(1 0 0 1 540 540)"  >
<g style="" vector-effect="non-scaling-stroke"   >
		<g transform="matrix(1 0 0 1 -490 -490)"  >
<rect style="stroke: none; stroke-width: 1; stroke-dasharray: none; stroke-linecap: butt; stroke-dashoffset: 0; stroke-linejoin: miter; stroke-miterlimit: 4; fill: rgb(255,255,255); fill-opacity: 0; fill-rule: nonzero; opacity: 1;" vector-effect="non-scaling-stroke"  x="-50" y="-50" rx="0" ry="0" width="100" height="100" />
</g>
		<g transform="matrix(1 0 0 1 0 0)"  >
<rect style="stroke: none; stroke-width: 1; stroke-dasharray: none; stroke-linecap: butt; stroke-dashoffset: 0; stroke-linejoin: miter; stroke-miterlimit: 4; fill: rgb(255,255,255); fill-rule: nonzero; opacity: 1; visibility: hidden;" vector-effect="non-scaling-stroke"  x="-540" y="-540" rx="0" ry="0" width="1080" height="1080" />
</g>
		<g transform="matrix(4.26 0 0 4.26 0 0)"  >
<path style="stroke: rgb(0,0,0); stroke-width: 0; stroke-dasharray: none; stroke-linecap: butt; stroke-dashoffset: 0; stroke-linejoin: miter; stroke-miterlimit: 4; fill: rgb(255,255,255); fill-rule: nonzero; opacity: 1;" vector-effect="non-scaling-stroke"  transform=" translate(-12, -12)" d="M 20 14.4 C 20.285812477359983 14.399999991849825 20.54991410100535 14.55247912866061 20.692820342038093 14.799999993414556 C 20.835726583070837 15.0475208581685 20.835726583070837 15.3524791418315 20.692820342038093 15.600000006585446 C 20.54991410100535 15.847520871339391 20.28581247735998 16.000000008150177 20 16 C 19.55817220904426 15.99999998740092 19.200000022812652 15.641827790955741 19.200000022812652 15.2 C 19.200000022812652 14.75817220904426 19.55817220904426 14.40000001259908 20 14.4 Z M 8.8 14.4 L 13.600000000000001 14.4 C 13.885812477359982 14.399999991849825 14.149914101005352 14.55247912866061 14.292820342038095 14.799999993414556 C 14.435726583070839 15.0475208581685 14.435726583070839 15.3524791418315 14.292820342038095 15.600000006585446 C 14.14991410100535 15.847520871339391 13.88581247735998 16.000000008150177 13.6 16 L 8.8 16 C 8.51418752264002 16.000000008150174 8.250085898994652 15.847520871339391 8.107179657961908 15.600000006585445 C 7.964273416929164 15.3524791418315 7.964273416929164 15.047520858168502 8.107179657961908 14.799999993414556 C 8.25008589899465 14.55247912866061 8.514187522640018 14.399999991849825 8.8 14.4 Z M 7.2 9.6 C 7.412173191871635 9.6 7.6156563221908105 9.684285472292334 7.765685424949238 9.834314575050762 C 7.9157145277076655 9.98434367780919 8 10.187826808128364 8 10.4 L 8 12 C 8.000000008150176 12.28581247735998 7.847520871339391 12.54991410100535 7.600000006585446 12.692820342038093 C 7.3524791418315 12.835726583070837 7.047520858168501 12.835726583070837 6.799999993414556 12.692820342038093 C 6.552479128660609 12.549914101005351 6.399999991849825 12.28581247735998 6.4 12 L 6.4 10.4 C 6.4 9.958172200135365 6.758172200135366 9.6 7.2 9.6 Z M 3.201 10.359 C 3.2175873164005173 9.42053811720919 3.779727714221502 8.577867883012848 4.639843005840452 8.202118592075538 C 5.499958297459401 7.826369301138227 6.500183940798705 7.9865055333573185 7.2 8.612 C 7.905321471544392 7.981141189557622 8.915498356325115 7.823622905660572 9.779406032334053 8.209789636836566 C 10.643313708342992 8.595956368012562 11.199663182138913 9.453711934193374 11.2 10.4 L 11.2 12 C 11.200000008150175 12.28581247735998 11.04752087133939 12.54991410100535 10.800000006585446 12.692820342038093 C 10.5524791418315 12.835726583070837 10.247520858168501 12.835726583070837 9.999999993414555 12.692820342038093 C 9.752479128660609 12.549914101005351 9.599999991849824 12.28581247735998 9.6 12 L 9.6 10.4 C 9.600000008150175 10.11418752264002 9.44752087133939 9.850085898994651 9.200000006585444 9.707179657961907 C 8.9524791418315 9.564273416929163 8.6475208581685 9.564273416929163 8.399999993414555 9.707179657961907 C 8.152479128660609 9.85008589899465 7.999999991849824 10.11418752264002 8 10.4 L 8 12 C 8.000000008150176 12.28581247735998 7.847520871339391 12.54991410100535 7.600000006585446 12.692820342038093 C 7.3524791418315 12.835726583070837 7.047520858168501 12.835726583070837 6.799999993414556 12.692820342038093 C 6.552479128660609 12.549914101005351 6.399999991849825 12.28581247735998 6.4 12 L 6.4 10.4 C 6.400000008150176 10.11418752264002 6.2475208713393915 9.850085898994651 6.000000006585446 9.707179657961907 C 5.7524791418315 9.564273416929163 5.4475208581685015 9.564273416929163 5.199999993414556 9.707179657961907 C 4.95247912866061 9.85008589899465 4.799999991849825 10.11418752264002 4.800000000000001 10.4 L 4.800000000000001 12 C 4.800000000000001 12.441827799864635 4.441827799864636 12.8 4.000000000000001 12.8 C 3.558172200135366 12.8 3.2000000000000006 12.441827799864635 3.2000000000000006 12 L 3.2000000000000006 10.4 L 3.2010000000000005 10.359 Z M 17.6 12.8 L 17.6 15.200000000000001 C 17.6 15.641827799864636 17.241827799864637 16 16.8 16 C 16.358172200135364 16 16 15.641827799864636 16 15.200000000000001 L 16 12.8 L 13.693999999999999 12.8 C 13.200999999999999 12.8 12.799999999999999 12.442 12.799999999999999 12 C 12.799999999999999 11.558 13.200999999999999 11.2 13.693999999999999 11.2 L 19.906 11.2 C 20.398999999999997 11.2 20.799999999999997 11.558 20.799999999999997 12 C 20.799999999999997 12.442 20.398999999999997 12.8 19.906 12.8 L 17.6 12.8 Z M 16.8 8 L 20 8 C 20.285812477359983 7.999999991849824 20.54991410100535 8.152479128660609 20.692820342038093 8.399999993414555 C 20.835726583070837 8.647520858168502 20.835726583070837 8.9524791418315 20.692820342038093 9.200000006585446 C 20.54991410100535 9.44752087133939 20.28581247735998 9.600000008150175 20 9.6 L 16.8 9.6 C 16.514187522640018 9.600000008150175 16.25008589899465 9.44752087133939 16.107179657961908 9.200000006585444 C 15.964273416929164 8.9524791418315 15.964273416929164 8.647520858168502 16.107179657961908 8.399999993414555 C 16.25008589899465 8.152479128660609 16.514187522640018 7.999999991849825 16.8 8 Z M 4 14.4 L 5.6 14.4 C 5.8858124773599805 14.399999991849825 6.14991410100535 14.55247912866061 6.292820342038093 14.799999993414556 C 6.435726583070837 15.0475208581685 6.435726583070837 15.3524791418315 6.292820342038093 15.600000006585446 C 6.149914101005349 15.847520871339391 5.88581247735998 16.000000008150177 5.599999999999999 16 L 4 16 C 3.714187522640019 16.000000008150174 3.4500858989946503 15.847520871339391 3.307179657961907 15.600000006585445 C 3.164273416929163 15.3524791418315 3.164273416929163 15.047520858168502 3.3071796579619064 14.799999993414556 C 3.4500858989946495 14.55247912866061 3.7141875226400183 14.399999991849825 3.999999999999999 14.4 Z M 13.2 8 L 13.6 8 C 13.88581247735998 7.999999991849824 14.14991410100535 8.152479128660609 14.292820342038093 8.399999993414555 C 14.435726583070837 8.647520858168502 14.435726583070837 8.9524791418315 14.292820342038093 9.200000006585446 C 14.149914101005349 9.44752087133939 13.885812477359979 9.600000008150175 13.599999999999998 9.6 L 13.2 9.6 C 12.914187522640018 9.600000008150175 12.65008589899465 9.44752087133939 12.507179657961906 9.200000006585444 C 12.364273416929162 8.9524791418315 12.364273416929162 8.647520858168502 12.507179657961906 8.399999993414555 C 12.650085898994648 8.152479128660609 12.914187522640017 7.999999991849825 13.2 8 Z M 1.6 14.4 L 0 14.4 L 0 8.8 C 0 6.5920000000000005 1.792 4.800000000000001 4 4.800000000000001 L 20 4.800000000000001 C 22.208 4.800000000000001 24 6.5920000000000005 24 8.8 L 24 15.200000000000001 C 24 17.408 22.208 19.200000000000003 20 19.200000000000003 L 4 19.200000000000003 C 1.7919999999999998 19.200000000000003 0 17.408 0 15.200000000000003 L 0 13.600000000000003 L 1.6 13.600000000000003 L 1.6 15.200000000000003 C 1.6000000000000008 16.525483399593906 2.674516600406097 17.6 4.000000000000001 17.6 L 20 17.6 C 21.325483399593903 17.6 22.4 16.525483399593906 22.4 15.200000000000001 L 22.4 8.8 C 22.4 7.474516600406097 21.325483399593903 6.4 20 6.4 L 4 6.4 C 2.674516600406096 6.4 1.6 7.474516600406096 1.6 8.8 L 1.6 14.4 Z" stroke-linecap="round" />
</g>
</g>
</g>
</svg>